<?xml version="1.0" encoding="UTF-8" standalone="no"?>
<svg
   role="img"
   viewBox="0 0 312 312"
   class="d-block"
   version="1.1"
   id="svg119"
   sodipodi:docname="Trello_logo.svg"
   inkscape:version="1.1 (c68e22c387, 2021-05-23)"
   xmlns:inkscape="http://www.inkscape.org/namespaces/inkscape"
   xmlns:sodipodi="http://sodipodi.sourceforge.net/DTD/sodipodi-0.dtd"
   xmlns="http://www.w3.org/2000/svg"
   xmlns:svg="http://www.w3.org/2000/svg">
  <defs
     id="defs123" />
  <sodipodi:namedview
     id="namedview121"
     pagecolor="#ffffff"
     bordercolor="#666666"
     borderopacity="1.0"
     inkscape:pageshadow="2"
     inkscape:pageopacity="0.0"
     inkscape:pagecheckerboard="0"
     showgrid="false"
     inkscape:zoom="2.5096154"
     inkscape:cx="156"
     inkscape:cy="156"
     inkscape:window-width="1920"
     inkscape:window-height="1001"
     inkscape:window-x="-9"
     inkscape:window-y="-9"
     inkscape:window-maximized="1"
     inkscape:current-layer="svg119" />
  <linearGradient
     id="trello-logo-default"
     x1="31.80974"
     x2="31.80974"
     y1="62.47014"
     y2="0.070022575"
     gradientTransform="scale(1.0003225,0.99967761)"
     gradientUnits="userSpaceOnUse">
    <stop
       offset="0"
       stop-color="#0052cc"
       id="stop96" />
    <stop
       offset="1"
       stop-color="#2684ff"
       id="stop98" />
  </linearGradient>
  <g
     fill="none"
     fill-rule="evenodd"
     id="g117"
     transform="translate(-0.57987945,122.94057)">
    <path
       d="M 55.59,0.07 H 8 C 3.9059492,0.07 0.58551759,3.3859529 0.57993927,7.48 V 55 C 0.57202245,56.973099 1.350247,58.868121 2.7426325,60.266137 4.1350181,61.664152 6.0268848,62.45 8,62.45 h 47.59 c 1.971382,-0.0026 3.860676,-0.789677 5.250897,-2.187403 C 62.231118,58.864871 63.007972,56.971367 63.000061,55 V 7.48 C 62.994491,3.3898539 59.680146,0.07550862 55.59,0.07 Z M 27.5,45 c -0.0026,0.659482 -0.267838,1.290754 -0.736972,1.754259 C 26.293894,47.217763 25.659466,47.475324 25,47.470081 H 14.6 C 13.239764,47.464493 12.14,46.360248 12.14,45 V 14.05 c 0,-1.360248 1.099764,-2.464493 2.46,-2.47 H 25 c 1.361867,0.0055 2.46452,1.108133 2.47,2.47 z m 24,-14.21 c 0,0.660316 -0.264297,1.293159 -0.73402,1.757246 C 50.296256,33.011333 49.660267,33.26802 49,33.260182 H 38.6 C 37.238133,33.25452 36.13548,32.151867 36.13,30.79 V 14.05 c 0.0055,-1.361867 1.108133,-2.46452 2.47,-2.47 H 49 c 1.360236,0.0055 2.460011,1.109752 2.46,2.47 z"
       fill="url(#trello-logo-default)"
       id="path101"
       style="fill:url(#trello-logo-default)" />
    <g
       fill="#293856"
       fill-rule="nonzero"
       transform="translate(87)"
       id="g115">
      <path
         d="M 42.92,4.64 V 16.7 H 28.63 V 62.45 H 14.85 V 16.7 H 0.56 V 4.64 Z"
         id="path103" />
      <path
         d="M 60.46,62.45 H 47.72 v -45 h 12.74 v 8.62 C 62.88,20 66.75,16.39 73.64,16.83 v 13.33 c -9,-0.7 -13.18,1.5 -13.18,8.71 z"
         id="path105" />
      <path
         d="m 143.24,62.8 c -8.35,0 -13.6,-4 -13.6,-13.46 V 0.07 h 12.83 v 47.51 c 0,2.73 1.8,3.7 4,3.7 0.63464,0.01286 1.26942,-0.01721 1.9,-0.09 v 11.09 c -1.67789,0.408755 -3.40421,0.583742 -5.13,0.52 z"
         id="path107" />
      <path
         d="m 170,62.8 c -8.35,0 -13.61,-4 -13.61,-13.46 V 0.07 h 12.83 v 47.51 c 0,2.73 1.81,3.7 4.05,3.7 0.63131,0.01309 1.26279,-0.01698 1.89,-0.09 v 11.09 c -1.68741,0.412672 -3.42418,0.587695 -5.16,0.52 z"
         id="path109" />
      <path
         d="m 181.31,39.93 c 0,-13.9 8,-23.41 21.78,-23.41 13.78,0 21.61,9.48 21.61,23.41 0,13.93 -7.92,23.58 -21.61,23.58 -13.69,0 -21.78,-9.77 -21.78,-23.58 z m 12.49,0 c 0,6.77 2.84,12.14 9.29,12.14 6.45,0 9.13,-5.37 9.13,-12.14 0,-6.77 -2.75,-12 -9.13,-12 -6.38,0 -9.29,5.22 -9.29,12 z"
         id="path111" />
      <path
         d="m 90.84,44 c 3.567005,0.391932 7.151635,0.602204 10.74,0.63 9.76,0 18,-2.62 18,-12.07 0,-9.17 -8.47,-16.06 -18.66,-16.06 -13.72,0 -22.51,9.95 -22.51,23.85 0,14.43 7.58,23 24.71,23 5.08184,0.04137 10.12723,-0.860564 14.88,-2.66 V 49.91 c -4.4,1.41 -9.35,2.81 -14.43,2.81 C 96.75,52.72 92,50.48 90.84,44 Z m 9.82,-17.68 c 3.61,0 6.51,2.45 6.51,5.8 0,4.31 -4.55,5.66 -9.79,5.66 -2.230114,-0.01024 -4.456334,-0.187406 -6.66,-0.53 0.166456,-2.101303 0.769288,-4.144802 1.77,-6 1.634825,-2.993888 4.759056,-4.871487 8.17,-4.91 z"
         id="path113" />
    </g>
  </g>
</svg>
